<svg width="949" height="404" viewBox="0 0 949 404" fill="none" xmlns="http://www.w3.org/2000/svg">
<path d="M0 20.3925C0 9.60829 8.69911 0.839844 19.398 0.839844H161.184V43.3719H48.395V102.937H143.685V145.469H48.395V235.573H0V20.3925Z" fill="black"/>
<path d="M497.748 235.472C485.049 235.472 472.95 233.053 461.451 228.215C449.953 223.377 440.254 216.524 432.254 207.554C424.255 198.685 418.956 188.203 416.256 176.209L458.351 161.998C461.852 171.876 466.951 179.434 473.75 184.474C480.549 189.513 488.549 192.033 497.748 192.033C505.347 192.033 511.846 190.622 517.246 187.699C522.645 184.776 526.945 180.744 530.045 175.504C533.144 170.263 534.644 164.115 534.644 157.06C534.644 150.005 533.144 143.957 530.145 138.918C527.145 133.879 522.945 129.948 517.546 127.126C512.146 124.304 505.547 122.994 497.748 122.994C493.248 122.994 488.749 123.497 484.249 124.505C479.749 125.513 475.65 127.025 471.95 128.839L460.851 105.658L519.545 43.4727H430.055V0.839844H573.04V43.4727L528.844 88.7261C528.844 88.7261 539.343 90.1374 550.142 96.1842C560.341 101.828 568.14 109.791 573.84 119.869C579.539 129.948 582.339 141.74 582.339 155.246C582.339 170.565 578.64 184.272 571.24 196.467C563.841 208.663 553.842 218.237 541.143 225.191C528.344 232.045 513.946 235.472 497.748 235.472Z" fill="black"/>
<path d="M671.529 192.134C677.831 192.134 683.432 190.723 688.431 187.8C693.429 184.877 697.428 180.846 700.427 175.605C703.426 170.364 705.028 164.317 705.028 157.463C705.028 150.408 703.526 144.361 700.427 139.321C697.329 134.282 693.429 130.251 688.431 127.429C683.432 124.506 677.831 123.095 671.529 123.095C665.431 123.095 659.831 124.506 654.832 127.429C649.734 130.351 645.735 134.282 642.631 139.321C639.632 144.361 638.036 150.408 638.036 157.463C638.036 164.317 639.532 170.364 642.631 175.605C645.636 180.846 649.734 184.978 654.832 187.8C659.831 190.622 665.431 192.134 671.529 192.134ZM671.529 235.472C655.931 235.472 642.034 232.146 629.833 225.393C617.638 218.641 608.138 209.57 601.239 197.98C594.34 186.389 590.938 173.388 590.938 158.975C590.938 151.718 591.639 144.461 593.037 137.305C594.44 130.049 597.34 122.087 601.537 113.419C605.84 104.752 612.136 94.7737 620.736 83.6868L683.73 0.940898H739.925L676.428 83.7879C676.428 83.7879 678.732 83.7879 680.03 83.7879C694.026 83.7879 706.426 87.0133 717.323 93.3624C728.127 99.8132 736.721 108.481 742.825 119.567C749.022 130.654 752.12 143.051 752.12 156.858C752.12 171.976 748.624 185.482 741.825 197.274C734.926 209.167 725.426 218.54 713.424 225.293C701.228 232.045 687.332 235.472 671.529 235.472Z" fill="black"/>
<path d="M859.511 192.738C868.812 192.738 876.711 189.816 883.112 183.869C889.508 177.922 894.308 169.456 897.71 158.269C901.107 147.082 902.808 133.677 902.808 117.955C902.808 102.232 901.107 88.9277 897.71 77.8408C894.308 66.7545 889.409 58.2884 882.908 52.342C876.412 46.3956 868.508 43.4727 859.213 43.4727C850.011 43.4727 842.311 46.3956 835.915 52.342C829.513 58.2884 824.614 66.7545 821.317 77.8408C817.914 88.9277 816.219 102.332 816.219 117.955C816.219 133.375 817.914 146.779 821.317 157.967C824.714 169.154 829.613 177.721 836.114 183.768C842.615 189.816 850.414 192.738 859.511 192.738ZM859.511 235.472C841.814 235.472 826.216 230.533 812.816 220.858C799.417 211.081 788.917 197.374 781.322 179.636C773.722 161.898 770.021 141.437 770.021 117.955C770.021 94.3701 773.722 73.8098 781.217 56.2727C788.718 38.7358 799.119 25.1295 812.618 15.3532C826.017 5.77841 841.516 0.839844 859.213 0.839844C877.313 0.839844 893.109 5.77841 906.509 15.4539C919.903 25.2303 930.403 38.9373 937.804 56.4743C945.305 74.1121 949 94.5718 949 117.955C949 141.337 945.305 161.797 937.804 179.434C930.304 197.072 919.903 210.779 906.509 220.657C893.109 230.533 877.412 235.472 859.511 235.472Z" fill="black"/>
<path d="M292.27 197.778C250.275 197.778 216.078 163.308 216.078 120.978C216.078 80.5623 247.175 47.5042 286.471 44.4806V24.1217C286.471 18.8807 293.07 16.2603 296.87 19.9894L329.367 51.2333C333.266 54.9625 333.266 61.0099 329.367 64.7387L296.87 95.9831C292.97 99.7118 286.471 97.0915 286.471 91.8503V71.0884C261.674 74.0109 242.476 95.2774 242.476 120.978C242.476 148.694 264.873 171.271 292.37 171.271C319.868 171.271 342.266 148.694 342.266 120.978C342.266 115.838 341.465 110.799 340.066 106.061C337.866 99.1073 341.765 91.6492 348.765 89.4317C355.664 87.2142 363.063 91.1452 365.263 98.2C367.562 105.558 368.663 113.217 368.663 121.079C368.463 163.308 334.266 197.778 292.27 197.778ZM295.47 0.839844C231.177 0.839844 179.082 53.3499 179.082 118.156V235.472H295.47C359.764 235.472 411.858 182.962 411.858 118.156C411.858 53.3499 359.764 0.839844 295.47 0.839844Z" fill="#FFCE00"/>
<path d="M342.84 375.999C337.186 375.999 332.277 375.056 328.112 373.172C323.947 371.288 320.724 368.61 318.442 365.139C316.162 361.569 315.021 357.453 315.021 352.792C315.021 348.329 316.013 344.362 317.996 340.891C319.98 337.321 323.054 334.345 327.219 331.965C331.385 329.585 336.641 327.899 342.988 326.907L369.468 322.593V337.469L346.708 341.337C342.84 342.031 339.963 343.271 338.079 345.056C336.195 346.841 335.253 349.172 335.253 352.048C335.253 354.825 336.294 357.056 338.377 358.742C340.558 360.329 343.236 361.122 346.41 361.122C350.476 361.122 354.046 360.279 357.12 358.594C360.294 356.808 362.724 354.379 364.41 351.304C366.195 348.23 367.088 344.858 367.088 341.188V320.362C367.088 316.89 365.699 314.015 362.922 311.733C360.245 309.353 356.674 308.163 352.211 308.163C348.046 308.163 344.327 309.304 341.054 311.585C337.881 313.767 335.55 316.692 334.063 320.362L318.145 312.626C319.732 308.362 322.211 304.692 325.583 301.617C329.054 298.444 333.12 295.965 337.781 294.18C342.443 292.394 347.501 291.502 352.955 291.502C359.6 291.502 365.451 292.742 370.509 295.221C375.567 297.601 379.484 300.973 382.261 305.337C385.138 309.601 386.575 314.61 386.575 320.362V374.213H368.129V360.379L372.294 360.081C370.211 363.552 367.733 366.478 364.856 368.858C361.98 371.139 358.708 372.924 355.038 374.213C351.369 375.404 347.302 375.999 342.84 375.999ZM404.587 374.213V293.287H422.885V309.205L421.397 306.378C423.282 301.519 426.356 297.849 430.621 295.37C434.984 292.791 440.042 291.502 445.794 291.502C451.745 291.502 457.001 292.791 461.563 295.37C466.224 297.948 469.844 301.568 472.423 306.229C475.001 310.791 476.291 316.097 476.291 322.147V374.213H456.803V326.758C456.803 323.188 456.109 320.114 454.72 317.535C453.332 314.956 451.398 312.973 448.918 311.585C446.538 310.097 443.712 309.353 440.439 309.353C437.266 309.353 434.439 310.097 431.959 311.585C429.48 312.973 427.546 314.956 426.158 317.535C424.769 320.114 424.075 323.188 424.075 326.758V374.213H404.587ZM529.662 375.106C520.538 375.106 513.447 372.627 508.389 367.668C503.43 362.61 500.951 355.519 500.951 346.395V310.692H486.968V293.287H488.455C492.422 293.287 495.496 292.246 497.678 290.163C499.86 288.08 500.951 285.055 500.951 281.089V274.84H520.439V293.287H539.034V310.692H520.439V345.354C520.439 348.031 520.885 350.312 521.778 352.197C522.769 354.081 524.257 355.519 526.241 356.511C528.323 357.503 530.951 357.999 534.125 357.999C534.819 357.999 535.613 357.949 536.505 357.849C537.497 357.751 538.439 357.651 539.332 357.552V374.213C537.943 374.412 536.357 374.61 534.571 374.808C532.786 375.007 531.15 375.106 529.662 375.106ZM591.873 375.999C583.545 375.999 576.255 374.114 570.007 370.345C563.759 366.577 558.899 361.47 555.429 355.023C551.957 348.577 550.222 341.436 550.222 333.601C550.222 325.469 551.957 318.279 555.429 312.031C558.998 305.684 563.809 300.676 569.858 297.006C576.007 293.337 582.85 291.502 590.388 291.502C596.737 291.502 602.285 292.543 607.05 294.626C611.908 296.708 616.024 299.585 619.398 303.254C622.765 306.924 625.349 311.138 627.132 315.899C628.915 320.56 629.81 325.618 629.81 331.072C629.81 332.461 629.71 333.899 629.512 335.387C629.412 336.874 629.167 338.163 628.769 339.254H566.288V324.378H617.761L608.535 331.37C609.43 326.808 609.178 322.742 607.793 319.172C606.501 315.601 604.32 312.775 601.245 310.692C598.269 308.61 594.65 307.568 590.388 307.568C586.319 307.568 582.701 308.61 579.528 310.692C576.354 312.676 573.924 315.651 572.238 319.618C570.652 323.486 570.057 328.196 570.453 333.75C570.057 338.709 570.701 343.122 572.387 346.99C574.172 350.759 576.751 353.685 580.123 355.767C583.594 357.849 587.559 358.891 592.025 358.891C596.486 358.891 600.257 357.949 603.332 356.065C606.501 354.18 608.985 351.651 610.768 348.478L626.536 356.213C624.952 360.081 622.473 363.503 619.099 366.478C615.726 369.453 611.71 371.784 607.05 373.47C602.484 375.156 597.427 375.999 591.873 375.999ZM683.555 375.999C675.522 375.999 668.284 374.164 661.836 370.494C655.493 366.726 650.482 361.668 646.811 355.321C643.145 348.874 641.309 341.635 641.309 333.601C641.309 325.569 643.145 318.378 646.811 312.031C650.482 305.684 655.493 300.676 661.836 297.006C668.284 293.337 675.522 291.502 683.555 291.502C689.307 291.502 694.663 292.543 699.626 294.626C704.584 296.61 708.846 299.387 712.418 302.956C716.089 306.428 718.714 310.593 720.299 315.453L703.193 322.89C701.708 318.824 699.176 315.552 695.61 313.072C692.137 310.593 688.121 309.353 683.555 309.353C679.293 309.353 675.475 310.395 672.102 312.478C668.828 314.56 666.25 317.436 664.367 321.105C662.485 324.775 661.544 328.99 661.544 333.75C661.544 338.51 662.485 342.726 664.367 346.395C666.25 350.065 668.828 352.94 672.102 355.023C675.475 357.106 679.293 358.147 683.555 358.147C688.22 358.147 692.283 356.908 695.756 354.428C699.229 351.949 701.708 348.626 703.193 344.461L720.299 352.197C718.714 356.759 716.136 360.874 712.564 364.544C708.998 368.114 704.73 370.941 699.772 373.024C694.815 375.007 689.407 375.999 683.555 375.999ZM735.09 374.213V293.287H754.576V374.213H735.09ZM735.09 284.212V263.386H754.576V284.212H735.09ZM772.57 403.966V293.287H790.869V309.353L789.08 305.337C791.857 300.973 795.628 297.601 800.387 295.221C805.146 292.742 810.653 291.502 816.903 291.502C824.538 291.502 831.431 293.386 837.576 297.155C843.726 300.923 848.584 305.981 852.156 312.328C855.828 318.676 857.663 325.816 857.663 333.75C857.663 341.585 855.874 348.726 852.308 355.172C848.736 361.618 843.878 366.726 837.727 370.494C831.577 374.164 824.585 375.999 816.751 375.999C810.899 375.999 805.497 374.858 800.539 372.577C795.675 370.197 791.811 366.825 788.934 362.461L792.056 358.594V403.966H772.57ZM814.518 358.147C818.984 358.147 822.948 357.106 826.421 355.023C829.893 352.94 832.571 350.065 834.453 346.395C836.435 342.726 837.429 338.51 837.429 333.75C837.429 328.99 836.435 324.824 834.453 321.254C832.571 317.585 829.893 314.708 826.421 312.626C822.948 310.444 818.984 309.353 814.518 309.353C810.256 309.353 806.385 310.395 802.919 312.478C799.545 314.56 796.868 317.485 794.886 321.254C792.997 324.924 792.056 329.089 792.056 333.75C792.056 338.51 792.997 342.726 794.886 346.395C796.868 350.065 799.545 352.94 802.919 355.023C806.385 357.106 810.256 358.147 814.518 358.147ZM897.062 375.999C891.414 375.999 886.503 375.056 882.335 373.172C878.172 371.288 874.951 368.61 872.665 365.139C870.385 361.569 869.245 357.453 869.245 352.792C869.245 348.329 870.239 344.362 872.221 340.891C874.203 337.321 877.278 334.345 881.446 331.965C885.609 329.585 890.865 327.899 897.214 326.907L923.691 322.593V337.469L900.932 341.337C897.062 342.031 894.191 343.271 892.303 345.056C890.42 346.841 889.479 349.172 889.479 352.048C889.479 354.825 890.52 357.056 892.601 358.742C894.781 360.329 897.459 361.122 900.634 361.122C904.703 361.122 908.269 360.279 911.344 358.594C914.519 356.808 916.951 354.379 918.634 351.304C920.418 348.23 921.312 344.858 921.312 341.188V320.362C921.312 316.89 919.926 314.015 917.149 311.733C914.472 309.353 910.9 308.163 906.439 308.163C902.271 308.163 898.552 309.304 895.278 311.585C892.104 313.767 889.777 316.692 888.286 320.362L872.373 312.626C873.957 308.362 876.436 304.692 879.809 301.617C883.282 298.444 887.345 295.965 892.004 294.18C896.67 292.394 901.727 291.502 907.181 291.502C913.823 291.502 919.675 292.742 924.732 295.221C929.789 297.601 933.712 300.973 936.489 305.337C939.359 309.601 940.798 314.61 940.798 320.362V374.213H922.353V360.379L926.521 360.081C924.434 363.552 921.955 366.478 919.079 368.858C916.202 371.139 912.934 372.924 909.263 374.213C905.591 375.404 901.528 375.999 897.062 375.999Z" fill="#FFCE00"/>
</svg>
